<svg data-v-0dd9719b="" version="1.0" xmlns="http://www.w3.org/2000/svg" xmlns:xlink="http://www.w3.org/1999/xlink" width="100%" height="100%" viewBox="0 0 340.000000 250.000000" preserveAspectRatio="xMidYMid meet" color-interpolation-filters="sRGB" style="margin: auto;"> <rect data-v-0dd9719b="" x="0" y="0" width="100%" height="100%" fill="#ffffff" fill-opacity="1" class="background"></rect> <rect data-v-0dd9719b="" x="0" y="0" width="100%" height="100%" fill="url(#watermark)" fill-opacity="1" class="watermarklayer"></rect> <g data-v-0dd9719b="" fill="#000000" class="icon-text-wrapper icon-svg-group iconsvg" transform="translate(48.16999816894531,95.15133094787598)"><g class="iconsvg-imagesvg" transform="translate(0,0)"><g><rect fill="#000000" fill-opacity="0" stroke-width="2" x="0" y="0" width="60" height="59.69733451401395" class="image-rect"></rect> <svg filter="url(#colors7843443863)" x="0" y="0" width="60" height="59.69733451401395" filtersec="colorsf3724814833" class="image-svg-svg primary" style="overflow: visible;"><svg version="1.1" id="图层_1" xmlns="http://www.w3.org/2000/svg" xmlns:xlink="http://www.w3.org/1999/xlink" x="0px" y="0px" viewBox="9.925788879394531 5.926277160644531 980.077880859375 975.1337280273438" enable-background="new 0 0 1000 991" xml:space="preserve">
<path fill="#070707" d="M950.05,446.48c85.8-151.05,21.49-295.4-80.35-371.54c-95.61-71.47-246.97-97.01-366.72,4.05
	c-17.6-14.48-36.13-27.41-55.9-37.84C297.59-37.34,157.44,26.35,84.88,124.3c-70.38,95.14-96.08,247.28,3.89,368.74
	C39.72,562.18,7.02,636.45,10.13,712.29C13.56,797,61.21,873.15,151.68,938.55l4.67,2.8c40.8,20.4,95.77,39.71,158.05,39.71
	c34.88,0,72.1-6.07,110.25-21.33l2.65-1.09c25.23-12.61,49.36-32.39,72.72-52.63c10.43,8.88,21.18,17.44,32.7,25.07
	c52.01,34.26,104.8,48.74,154.94,48.74c92.34,0,175.96-49.05,228.59-113.52c77.7-95.3,108.38-249.77,0.31-372.48
	C929.02,479.02,940.39,463.45,950.05,446.48z M828.59,130.06c72.1,53.72,131.43,160.08,61.66,282.63
	c-19.78,34.73-52.48,66.02-84.09,96.23c-9.5,9.19-19,18.06-28.03,27.09L629.27,685.04c-3.43-3.74-7.01-7.63-10.43-11.21
	l-67.89-67.89l188.57-188.57c3.74-3.74,7.63-7.32,11.68-11.21c17.91-16.82,40.18-37.84,50.61-65.4
	c19.93-52.79,2.65-105.11-44.07-133.14c-34.73-20.87-84.71-25.07-125.66-0.16l-5.29-5.29c-12.15-12.15-24.45-25.23-36.91-38.62
	c-11.37-12.15-23.2-24.76-35.66-37.37C644.53,55.47,754.31,74.62,828.59,130.06z M730.48,710.73
	c-10.59,12.77-28.5,21.49-47.34,17.44l56.06-56.06C745.28,689.55,735.93,704.19,730.48,710.73z M566.36,493.35l-64,64l-64-63.84
	l64-64L566.36,493.35z M738.27,313.96l-53.88-53.88c13.39-2.49,27.25,0.16,37.84,6.54C732.35,272.54,747.3,286.71,738.27,313.96z
	 M140,165.09c51.08-68.98,153.69-126.91,275.15-63.22c45,23.67,85.33,66.8,124.42,108.54c13.08,13.86,25.85,27.56,38.46,40.33
	l115.54,115.54c-0.93,0.78-1.87,1.71-2.65,2.65l-75.99,75.99l-185.3-185.3l-7.16-7.16c-35.82-36.28-95.77-96.86-173.31-47.81
	c-38.77,24.45-49.52,56.21-51.85,78.48c-2.34,22.42,3.43,46.56,15.42,69.76c-27.72,26.78-54.97,54.97-80.04,84.4
	C67.44,345.88,87.99,235.48,140,165.09z M266.6,303.06c-0.93-4.67-1.4-9.03-0.93-13.08c0.62-6.7,3.58-16.82,20.24-27.41
	c11.68-7.47,21.8-9.03,33.17-5.29C302.1,271.76,284.51,287.02,266.6,303.06z M398.03,896.66c-80.82,31.77-157.43,9.65-208.2-15.26
	c-72.1-52.63-108.38-108.85-110.87-171.76c-5.92-145.91,169.58-301.63,294.93-408.92l80.19,80.19L258.66,576.04
	c-26.94,26.94-109,109-30.05,189.51c21.96,22.27,48.27,34.1,76.3,34.1c0.16,0,0.31,0,0.47,0c24.76-0.16,47.18-9.19,66.34-21.33
	l36.13,36.13c9.19,9.19,18.37,19,27.72,28.81c4.83,5.14,9.81,10.12,14.64,15.26C431.97,874.08,414.53,888.09,398.03,896.66z
	 M268.16,674.61l52.94,52.94c-5.61,2.18-11.06,3.43-15.88,3.43c-5.76-0.31-15.57-1.4-27.41-13.55
	C266.6,706.37,258.97,695,268.16,674.61z M863,822.85c-64.47,78.95-179.85,125.35-292.44,50.92
	c-30.21-19.93-58.24-49.36-85.33-77.86c-9.65-10.28-19.31-20.4-28.96-30.05L310.98,620.57l78.64-78.64l180.63,180.48
	c4.67,4.67,9.34,9.81,14.17,15.1c11.83,13.08,25.38,27.87,41.58,39.09c21.64,15.1,44.38,21.49,66.18,21.49
	c35.97,0,69.45-17.75,90.94-43.29c33.32-39.86,35.04-92.03,6.23-132.83l37.53-37.53c8.72-8.72,17.75-17.28,26.78-26
	c5.14-4.98,10.43-9.97,15.57-14.95C946.62,635.99,923.57,748.57,863,822.85z"></path>
</svg></svg> <defs><filter id="colors7843443863"><feColorMatrix type="matrix" values="0 0 0 0 0  0 0 0 0 0  0 0 0 0 0  0 0 0 1 0" class="icon-fecolormatrix"></feColorMatrix></filter> <filter id="colorsf3724814833"><feColorMatrix type="matrix" values="0 0 0 0 0.99609375  0 0 0 0 0.99609375  0 0 0 0 0.99609375  0 0 0 1 0" class="icon-fecolormatrix"></feColorMatrix></filter> <filter id="colorsb1428985102"><feColorMatrix type="matrix" values="0 0 0 0 0  0 0 0 0 0  0 0 0 0 0  0 0 0 1 0" class="icon-fecolormatrix"></feColorMatrix></filter></defs></g></g> <g transform="translate(67,12.16366958618164)"><g data-gra="path-name" fill-rule="" class="tp-name iconsvg-namesvg"><g transform="scale(1)"><g><path d="M27.87-34.68L27.87-34.68Q27.67-32.47 27.6-30.42 27.53-28.36 27.53-27.23L27.53-27.23Q27.53-26.16 27.58-25.18 27.62-24.2 27.67-23.51L27.67-23.51 26.55-23.51Q25.91-27.33 24.78-29.51 23.66-31.69 22.02-32.62 20.38-33.55 18.12-33.55L18.12-33.55 16.51-33.55Q15.09-33.55 14.35-33.31 13.62-33.06 13.37-32.33 13.13-31.59 13.13-30.07L13.13-30.07 13.13-5.49Q13.13-3.58 13.52-2.64 13.91-1.71 15.04-1.42 16.16-1.13 18.37-1.08L18.37-1.08 18.37 0Q16.85-0.05 14.45-0.1 12.05-0.15 9.4-0.15L9.4-0.15Q7.3-0.15 5.29-0.1 3.28-0.05 1.67 0L1.67 0 1.67-0.98Q3.23-1.08 4.02-1.37 4.8-1.67 5.07-2.55 5.34-3.43 5.34-5.19L5.34-5.19 5.34-29.49Q5.34-31.3 5.07-32.16 4.8-33.01 3.99-33.33 3.18-33.65 1.67-33.7L1.67-33.7 1.67-34.68Q4.31-34.63 7.4-34.58 10.48-34.53 13.22-34.53 15.97-34.53 17.63-34.53L17.63-34.53Q19.89-34.53 22.75-34.56 25.62-34.58 27.87-34.68ZM11.66-17.73L20.57-17.73Q20.57-17.73 20.57-17.24 20.57-16.75 20.57-16.75L20.57-16.75 11.66-16.75Q11.66-16.75 11.66-17.24 11.66-17.73 11.66-17.73L11.66-17.73ZM20.67-24.2L21.8-24.2Q21.6-21.4 21.62-19.93 21.65-18.47 21.65-17.24L21.65-17.24Q21.65-16.02 21.7-14.55 21.75-13.08 21.94-10.29L21.94-10.29 20.82-10.29Q20.52-12 19.89-13.47 19.25-14.94 18.02-15.84 16.8-16.75 14.84-16.75L14.84-16.75 14.84-17.73Q16.8-17.73 17.98-18.81 19.15-19.89 19.76-21.38 20.38-22.87 20.67-24.2L20.67-24.2ZM41.58-26.01L41.58-26.01Q45.16-26.01 47.85-24.69 50.55-23.36 52.07-20.42 53.58-17.49 53.58-12.64L53.58-12.64Q53.58-7.79 52.07-4.87 50.55-1.96 47.85-0.64 45.16 0.69 41.58 0.69L41.58 0.69Q38.11 0.69 35.39-0.64 32.67-1.96 31.13-4.87 29.58-7.79 29.58-12.64L29.58-12.64Q29.58-17.49 31.13-20.42 32.67-23.36 35.39-24.69 38.11-26.01 41.58-26.01ZM41.58-25.03L41.58-25.03Q39.62-25.03 38.3-22.11 36.98-19.2 36.98-12.64L36.98-12.64Q36.98-6.07 38.3-3.18 39.62-0.29 41.58-0.29L41.58-0.29Q43.59-0.29 44.89-3.18 46.19-6.07 46.19-12.64L46.19-12.64Q46.19-19.2 44.89-22.11 43.59-25.03 41.58-25.03ZM73.47-26.01L73.47-26.01Q75.04-26.01 76.02-25.35 77-24.69 77.46-23.66 77.93-22.63 77.93-21.5L77.93-21.5Q77.93-19.69 76.87-18.54 75.82-17.39 74.11-17.39L74.11-17.39Q72.39-17.39 71.44-18.24 70.48-19.1 70.48-20.52L70.48-20.52Q70.48-21.89 71.09-22.8 71.71-23.71 72.64-24.34L72.64-24.34Q71.95-24.54 71.27-24.29L71.27-24.29Q69.99-24.1 68.99-23.09 67.98-22.09 67.4-20.72 66.81-19.35 66.81-18.02L66.81-18.02 66.81-5.04Q66.81-2.69 67.96-1.86 69.11-1.03 71.41-1.03L71.41-1.03 71.41 0Q70.29-0.05 68.13-0.12 65.98-0.2 63.62-0.2L63.62-0.2Q61.67-0.2 59.66-0.12 57.65-0.05 56.62 0L56.62 0 56.62-1.03Q58.33-1.03 59.04-1.76 59.76-2.5 59.76-4.56L59.76-4.56 59.76-19.98Q59.76-22.19 59.09-23.24 58.43-24.29 56.62-24.29L56.62-24.29 56.62-25.32Q58.19-25.18 59.66-25.18L59.66-25.18Q61.71-25.18 63.5-25.35 65.29-25.52 66.81-25.86L66.81-25.86 66.81-21.31Q67.4-22.63 68.38-23.71 69.36-24.78 70.63-25.4 71.9-26.01 73.47-26.01ZM89.44-33.36L89.44-33.36 89.44-25.32 95.22-25.32 95.22-24.34 89.44-24.34 89.44-4.56Q89.44-3.09 89.98-2.47 90.51-1.86 91.59-1.86L91.59-1.86Q92.47-1.86 93.36-2.52 94.24-3.18 94.92-4.8L94.92-4.8 95.76-4.36Q94.97-2.16 93.38-0.73 91.79 0.69 89.04 0.69L89.04 0.69Q87.43 0.69 86.2 0.27 84.98-0.15 84.15-0.98L84.15-0.98Q83.07-2.06 82.73-3.65 82.38-5.24 82.38-7.79L82.38-7.79 82.38-24.34 78.27-24.34 78.27-25.32 82.38-25.32 82.38-31.79Q84.44-31.79 86.18-32.16 87.92-32.52 89.44-33.36ZM121.13-25.86L121.13-25.86 121.13-5.34Q121.13-3.13 121.81-2.08 122.5-1.03 124.26-1.03L124.26-1.03 124.26 0Q122.74-0.15 121.22-0.15L121.22-0.15Q119.17-0.15 117.4 0 115.64 0.15 114.07 0.54L114.07 0.54 114.07-3.87Q112.9-1.42 110.82-0.37 108.73 0.69 106.19 0.69L106.19 0.69Q104.13 0.69 102.86 0.15 101.58-0.39 100.85-1.22L100.85-1.22Q100.02-2.16 99.67-3.67 99.33-5.19 99.33-7.59L99.33-7.59 99.33-19.98Q99.33-22.19 98.67-23.24 98.01-24.29 96.2-24.29L96.2-24.29 96.2-25.32Q97.76-25.18 99.23-25.18L99.23-25.18Q101.29-25.18 103.08-25.35 104.87-25.52 106.38-25.86L106.38-25.86 106.38-5.58Q106.38-4.36 106.6-3.43 106.82-2.5 107.46-1.98 108.1-1.47 109.32-1.47L109.32-1.47Q111.28-1.47 112.68-3.11 114.07-4.75 114.07-7.15L114.07-7.15 114.07-19.98Q114.07-22.19 113.41-23.24 112.75-24.29 110.94-24.29L110.94-24.29 110.94-25.32Q112.51-25.18 113.98-25.18L113.98-25.18Q116.03-25.18 117.82-25.35 119.61-25.52 121.13-25.86ZM144.64-26.01L144.64-26.01Q146.69-26.01 147.99-25.49 149.29-24.98 150.02-24.1L150.02-24.1Q150.81-23.17 151.18-21.7 151.54-20.23 151.54-17.73L151.54-17.73 151.54-4.56Q151.54-2.5 152.25-1.76 152.96-1.03 154.68-1.03L154.68-1.03 154.68 0Q153.75-0.05 151.89-0.12 150.02-0.2 148.21-0.2L148.21-0.2Q146.35-0.2 144.56-0.12 142.78-0.05 141.84 0L141.84 0 141.84-1.03Q143.31-1.03 143.9-1.76 144.49-2.5 144.49-4.56L144.49-4.56 144.49-19.79Q144.49-21.01 144.24-21.92 144-22.82 143.36-23.34 142.73-23.85 141.45-23.85L141.45-23.85Q139.4-23.85 138-22.24 136.6-20.62 136.6-18.17L136.6-18.17 136.6-4.56Q136.6-2.5 137.22-1.76 137.83-1.03 139.25-1.03L139.25-1.03 139.25 0Q138.37-0.05 136.68-0.12 134.99-0.2 133.18-0.2L133.18-0.2Q131.31-0.2 129.36-0.12 127.4-0.05 126.42 0L126.42 0 126.42-1.03Q128.13-1.03 128.84-1.76 129.55-2.5 129.55-4.56L129.55-4.56 129.55-19.98Q129.55-22.19 128.89-23.24 128.23-24.29 126.42-24.29L126.42-24.29 126.42-25.32Q127.98-25.18 129.45-25.18L129.45-25.18Q131.51-25.18 133.3-25.35 135.09-25.52 136.6-25.86L136.6-25.86 136.6-21.45Q137.83-23.95 139.93-24.98 142.04-26.01 144.64-26.01ZM169.13-26.01L169.13-26.01Q173.44-26.01 175.89-23.46 178.33-20.91 178.33-15.13L178.33-15.13 162.22-15.13 162.12-16.07 172.16-16.07Q172.21-18.47 171.87-20.5 171.53-22.53 170.79-23.76 170.06-24.98 168.83-24.98L168.83-24.98Q167.12-24.98 165.92-22.82 164.72-20.67 164.47-15.67L164.47-15.67 164.62-15.38Q164.57-14.79 164.55-14.16 164.52-13.52 164.52-12.83L164.52-12.83Q164.52-9.45 165.48-7.35 166.43-5.24 167.9-4.29 169.37-3.33 170.89-3.33L170.89-3.33Q172.36-3.33 174.1-4.07 175.84-4.8 177.36-7.25L177.36-7.25 178.24-6.96Q177.65-5.09 176.38-3.33 175.1-1.57 173.14-0.44 171.18 0.69 168.44 0.69L168.44 0.69Q165.11 0.69 162.56-0.73 160.02-2.16 158.57-5.04 157.13-7.93 157.13-12.39L157.13-12.39Q157.13-16.95 158.67-19.98 160.21-23.02 162.93-24.51 165.65-26.01 169.13-26.01Z" transform="translate(-1.6700000762939453, 34.68000030517578)"></path></g> <!----> <!----> <!----> <!----> <!----> <!----> <!----></g></g> <!----></g></g><defs v-gra="od"></defs></svg>